<?xml version="1.0" encoding="utf-8"?>
<svg xmlns="http://www.w3.org/2000/svg" width="224px" height="144px" viewBox="0 0 224 144">
  <g id="Layer_1" transform="matrix(0.497778, 0, 0, 0.411429, 69.788735, 49.347951)">
    <g transform="matrix(1, 0, 0, 1, -171.200625, -200.942981)">
      <path d="M267.1,227.4c0,13.4-8.2,21.2-22.7,21.2h-19v-42.3h19.1C258.9,206.2,267.1,213.9,267.1,227.4L267.1,227.4z M304.2,276.3 c0,6.5,5.6,10.7,14.5,10.7c11.2,0,19.7-7.1,19.7-17.1v-6l-18.4,1.2C309.6,265.8,304.2,269.6,304.2,276.3z M481,118.5v275 c0,20.7-16.8,37.5-37.5,37.5h-375C47.8,431,31,414.2,31,393.5v-275C31,97.8,47.8,81,68.5,81h375C464.2,81,481,97.8,481,118.5z M130.8,210.8c6.6,0.5,13.1-3.3,17.3-8.1c4.1-5,6.7-11.7,6-18.5c-5.8,0.2-13,3.8-17.1,8.8C133.3,197.3,130.1,204.3,130.8,210.8 L130.8,210.8z M178.2,269c-0.2-0.2-15.3-5.9-15.5-23.4c-0.2-14.6,12-21.6,12.5-22c-6.9-10.2-17.5-11.2-21.2-11.5 c-9.5-0.5-17.7,5.4-22.2,5.4c-4.6,0-11.5-5.2-19-5c-9.8,0.2-18.9,5.7-23.8,14.5c-10.2,17.7-2.7,43.8,7.3,58.1 c4.8,7.1,10.7,14.9,18.4,14.6c7.3-0.3,10.2-4.7,18.9-4.7c8.8,0,11.3,4.7,19,4.6c8-0.2,12.9-7.1,17.8-14.2 C175.8,277.3,178,269.5,178.2,269z M284,227.3c0-20.8-14.5-35-35.1-35h-40v106.6h16.6v-36.4h22.9C269.3,262.5,284,248.1,284,227.3z M354.3,245.8c0-15.4-12.3-25.3-31.2-25.3c-17.6,0-30.5,10.1-31,23.8h14.9c1.2-6.6,7.3-10.9,15.6-10.9c10.2,0,15.8,4.7,15.8,13.4 v5.9l-20.6,1.3c-19.2,1.2-29.6,9.1-29.6,22.7c0,13.8,10.7,23,26.1,23c10.4,0,20-5.2,24.4-13.6h0.3V299h15.3L354.3,245.8 L354.3,245.8z M434.1,221.5h-16.8l-19.5,63h-0.3l-19.5-63h-17.4l28,77.6l-1.5,4.7c-2.5,8-6.6,11.1-14,11.1c-1.3,0-3.8-0.2-4.8-0.2 v12.8c0.9,0.3,5.1,0.4,6.3,0.4c16.2,0,23.8-6.2,30.4-24.8L434.1,221.5z"/>
    </g>
  </g>
</svg>