<?xml version="1.0" encoding="utf-8"?>
<svg xmlns="http://www.w3.org/2000/svg" width="224px" height="144px" viewBox="0 0 224 144">
  <g id="Layer_1" transform="matrix(1.382326, 0, 0, 2.104099, -97.427927, -33.802517)" style="">
    <path class="st0" d="M 211.704 83.734 L 91.304 83.734 C 79.704 83.734 70.404 74.334 70.404 62.834 L 70.404 37.734 C 70.404 26.134 79.804 16.834 91.304 16.834 L 211.704 16.834 C 223.304 16.834 232.604 26.234 232.604 37.734 L 232.604 62.834 C 232.604 74.334 223.304 83.734 211.704 83.734 Z" style="fill: rgb(90, 254, 174); stroke-width: 1;"/>
    <g transform="matrix(1, 0, 0, 1, 45.504418, -55.765744)">
      <path class="st1" d="M157.9,94.1l-8.3,31.7l0,0.1h6.5l8.3-31.7H157.9z M55.3,112.1c-1,0.5-2,0.7-3.1,0.7c-2.3,0-3.6-0.4-3.8-2.3 v-0.1c0-0.1,0-0.1,0-0.2v-5.5l0-0.6v-3.9h0v-1.6l0-0.6v-3.7L42.6,95c3.9-0.8,6.1-3.8,6.1-6.9v-1.9h-6.5v8.9l-0.4,0.1v16.4 c0.2,4.6,3.3,7.4,8.2,7.4c1.8,0,3.7-0.4,5.2-1.1l0,0L55.3,112.1L55.3,112.1L55.3,112.1z" style="fill: rgb(41, 41, 41);"/>
      <path class="st1" d="M56.3,92.9l-18.2,2.8v4.6l18.2-2.8C56.3,97.5,56.3,92.9,56.3,92.9z M56.3,99.7l-18.2,2.8v4.4l18.2-2.8 C56.3,104.1,56.3,99.7,56.3,99.7z M76.7,101.8c-0.3-5.1-3.5-8.2-8.7-8.2c-3,0-5.5,1.2-7.2,3.4c-1.7,2.2-2.6,5.4-2.6,9.3 c0,3.9,0.9,7.1,2.6,9.3c1.7,2.2,4.2,3.3,7.2,3.3c5.2,0,8.4-3,8.7-8.2v7.7h6.5V94.2l-6.5,1L76.7,101.8L76.7,101.8z M77.1,106.3 c0,4.5-2.4,7.5-6.1,7.5c-3.8,0-6.1-2.8-6.1-7.5c0-4.7,2.3-7.5,6.1-7.5c1.8,0,3.4,0.7,4.5,2.1C76.5,102.2,77.1,104.1,77.1,106.3 C77.1,106.3,77.1,106.3,77.1,106.3z M102.1,93.6c-5.2,0-8.4,3-8.7,8.2V87.1l-6.5,1v30.3h6.5v-7.7c0.3,5.2,3.5,8.2,8.7,8.2 c6.1,0,9.8-4.7,9.8-12.6S108.2,93.6,102.1,93.6z M99.2,113.8c-3.7,0-6.1-2.9-6.1-7.5c0-2.2,0.6-4.1,1.6-5.4 c1.1-1.4,2.6-2.1,4.5-2.1c3.8,0,6.1,2.8,6.1,7.5C105.3,111,103,113.8,99.2,113.8L99.2,113.8z M129.5,93.6c-5.2,0-8.4,3-8.7,8.2 V87.1l-6.5,1v30.3h6.5v-7.7c0.3,5.2,3.5,8.2,8.7,8.2c6.1,0,9.8-4.7,9.8-12.6S135.6,93.6,129.5,93.6L129.5,93.6z M126.6,113.8 c-3.7,0-6.1-2.9-6.1-7.5c0-2.2,0.6-4.1,1.6-5.4c1.1-1.4,2.6-2.1,4.5-2.1c3.8,0,6.1,2.8,6.1,7.5C132.7,111,130.4,113.8,126.6,113.8 L126.6,113.8z M139.3,94.1h6.9l5.6,24.3h-6.2C145.6,118.4,139.3,94.1,139.3,94.1z M169.7,96.6v-1.9h-0.8v-0.4h2.1v0.4h-0.8v1.9 H169.7z M171.1,96.6v-2.4h0.8l0.4,1.1c0.1,0.3,0.2,0.4,0.2,0.5c0-0.1,0.1-0.2,0.2-0.5l0.4-1.1h0.8v2.4h-0.5v-1.9l-0.7,1.9h-0.5 l-0.6-1.9v1.9L171.1,96.6L171.1,96.6z" style="fill: rgb(41, 41, 41);"/>
    </g>
  </g>
</svg>